<?xml version="1.0" standalone="no"?>
<!DOCTYPE svg PUBLIC "-//W3C//DTD SVG 20010904//EN"
 "http://www.w3.org/TR/2001/REC-SVG-20010904/DTD/svg10.dtd">
<svg version="1.0" xmlns="http://www.w3.org/2000/svg"
 width="135.000000pt" height="135.000000pt" viewBox="0 0 135.000000 135.000000"
 preserveAspectRatio="xMidYMid meet">
<metadata>
Created by potrace 1.11, written by Peter Selinger 2001-2013
</metadata>
<g transform="translate(0.000000,135.000000) scale(0.100000,-0.100000)"
fill="#000000" stroke="none">
<path d="M599 1231 c-37 -37 -38 -79 -3 -120 22 -26 33 -31 70 -31 61 0 94 32
94 90 0 85 -99 123 -161 61z"/>
<path d="M609 977 c-45 -34 -50 -92 -13 -136 22 -26 33 -31 70 -31 59 0 94 35
94 92 0 55 -34 88 -92 88 -24 0 -50 -6 -59 -13z"/>
<path d="M350 872 c-21 -17 -21 -20 -18 -282 l3 -265 28 -57 c32 -64 94 -125
165 -159 70 -34 207 -34 277 1 64 31 140 107 168 168 21 44 22 64 25 312 3
262 3 265 -18 282 -27 22 -68 23 -98 2 -22 -15 -22 -18 -22 -263 0 -240 -1
-249 -23 -292 -13 -24 -43 -57 -66 -74 -37 -26 -52 -30 -106 -30 -54 0 -69 4
-106 30 -23 17 -53 50 -66 74 -22 43 -23 52 -23 292 0 245 0 248 -22 263 -30
21 -71 20 -98 -2z"/>
<path d="M624 726 c-79 -35 -64 -156 22 -172 67 -12 114 25 114 91 0 71 -68
111 -136 81z"/>
</g>
</svg>
